<?xml version="1.0" standalone="no"?>
<!DOCTYPE svg PUBLIC "-//W3C//DTD SVG 20010904//EN"
 "http://www.w3.org/TR/2001/REC-SVG-20010904/DTD/svg10.dtd">
<svg version="1.0" xmlns="http://www.w3.org/2000/svg"
 width="256.000000pt" height="256.000000pt" viewBox="0 0 256.000000 256.000000"
 preserveAspectRatio="xMidYMid meet">
<metadata>
Created by potrace 1.14, written by Peter Selinger 2001-2017
</metadata>
<g transform="translate(0.000000,256.000000) scale(0.100000,-0.100000)"
fill="#000000" stroke="none">
<path d="M0 2255 l0 -305 305 0 305 0 0 305 0 305 -305 0 -305 0 0 -305z m520
5 l0 -220 -220 0 -220 0 0 220 0 220 220 0 220 0 0 -220z"/>
<path d="M170 2255 l0 -135 135 0 135 0 0 135 0 135 -135 0 -135 0 0 -135z"/>
<path d="M970 2520 l0 -40 -90 0 -90 0 0 -45 0 -45 -45 0 -45 0 0 -90 0 -90
90 0 90 0 0 -45 0 -45 -45 0 -45 0 0 -40 0 -40 -45 0 -45 0 0 -45 0 -45 45 0
45 0 0 -90 0 -90 -45 0 -45 0 0 45 0 45 -90 0 -90 0 0 -45 0 -45 -40 0 -40 0
0 45 0 45 -90 0 -90 0 0 -45 0 -45 90 0 90 0 0 -45 0 -45 -45 0 -45 0 0 -45 0
-45 130 0 130 0 0 -40 0 -40 -85 0 -85 0 0 -135 0 -135 -45 0 -45 0 0 -45 0
-45 85 0 85 0 0 -45 0 -45 45 0 45 0 0 45 0 45 180 0 180 0 0 45 0 45 -45 0
-45 0 0 45 0 45 45 0 45 0 0 45 0 45 40 0 40 0 0 85 0 85 -40 0 -40 0 0 90 0
90 40 0 40 0 0 45 0 45 90 0 90 0 0 45 0 45 45 0 45 0 0 45 0 45 -45 0 -45 0
0 40 0 40 45 0 45 0 0 45 0 45 45 0 45 0 0 -175 0 -175 -45 0 -45 0 0 -45 0
-45 -45 0 -45 0 0 -45 0 -45 -45 0 -45 0 0 -45 0 -45 45 0 45 0 0 45 0 45 45
0 45 0 0 45 0 45 45 0 45 0 0 -45 0 -45 45 0 45 0 0 45 0 45 -45 0 -45 0 0 45
0 45 130 0 130 0 0 -45 0 -45 -45 0 -45 0 0 -45 0 -45 45 0 45 0 0 -85 0 -85
45 0 45 0 0 -45 0 -45 45 0 45 0 0 130 0 130 -90 0 -90 0 0 45 0 45 45 0 45 0
0 90 0 90 45 0 45 0 0 85 0 85 -45 0 -45 0 0 45 0 45 45 0 45 0 0 45 0 45 -45
0 -45 0 0 90 0 90 45 0 45 0 0 40 0 40 -90 0 -90 0 0 -85 0 -85 -45 0 -45 0 0
45 0 45 -40 0 -40 0 0 40 0 40 -45 0 -45 0 0 -40 0 -40 45 0 45 0 0 -45 0 -45
-45 0 -45 0 0 -45 0 -45 -45 0 -45 0 0 90 0 90 -45 0 -45 0 0 40 0 40 -45 0
-45 0 0 -40 0 -40 -45 0 -45 0 0 40 0 40 -40 0 -40 0 0 -40z m80 -130 l0 -90
45 0 45 0 0 45 0 45 45 0 45 0 0 -90 0 -90 -90 0 -90 0 0 45 0 45 -40 0 -40 0
0 90 0 90 40 0 40 0 0 -90z m-170 -45 l0 -45 -45 0 -45 0 0 45 0 45 45 0 45 0
0 -45z m700 0 l0 -45 90 0 90 0 0 -45 0 -45 -90 0 -90 0 0 -45 0 -45 90 0 90
0 0 -85 0 -85 -45 0 -45 0 0 45 0 45 -45 0 -45 0 0 -45 0 -45 -40 0 -40 0 0
130 0 130 -45 0 -45 0 0 45 0 45 45 0 45 0 0 45 0 45 40 0 40 0 0 -45z m-610
-265 l0 -40 40 0 40 0 0 40 0 40 45 0 45 0 0 -40 0 -40 45 0 45 0 0 -45 0 -45
-45 0 -45 0 0 45 0 45 -45 0 -45 0 0 -90 0 -90 -40 0 -40 0 0 -45 0 -45 -45 0
-45 0 0 -90 0 -90 45 0 45 0 0 -85 0 -85 -45 0 -45 0 0 45 0 45 -90 0 -90 0 0
40 0 40 -45 0 -45 0 0 45 0 45 -45 0 -45 0 0 45 0 45 45 0 45 0 0 -45 0 -45
90 0 90 0 0 45 0 45 45 0 45 0 0 45 0 45 45 0 45 0 0 90 0 90 -45 0 -45 0 0
-45 0 -45 -45 0 -45 0 0 45 0 45 45 0 45 0 0 40 0 40 45 0 45 0 0 -40z m-180
-750 l0 -90 -90 0 -90 0 0 -45 0 -45 -45 0 -45 0 0 45 0 45 45 0 45 0 0 45 0
45 -45 0 -45 0 0 45 0 45 135 0 135 0 0 -90z"/>
<path d="M1500 2255 l0 -45 40 0 40 0 0 45 0 45 -40 0 -40 0 0 -45z"/>
<path d="M1940 2255 l0 -305 310 0 310 0 0 305 0 305 -310 0 -310 0 0 -305z
m530 5 l0 -220 -220 0 -220 0 0 220 0 220 220 0 220 0 0 -220z"/>
<path d="M2110 2255 l0 -135 135 0 135 0 0 135 0 135 -135 0 -135 0 0 -135z"/>
<path d="M2200 1815 l0 -45 45 0 45 0 0 -45 0 -45 -45 0 -45 0 0 -85 0 -85 45
0 45 0 0 40 0 40 45 0 45 0 0 -85 0 -85 -135 0 -135 0 0 45 0 45 -40 0 -40 0
0 40 0 40 40 0 40 0 0 90 0 90 -85 0 -85 0 0 -45 0 -45 45 0 45 0 0 -45 0 -45
-45 0 -45 0 0 -130 0 -130 -135 0 -135 0 0 45 0 45 -45 0 -45 0 0 45 0 45 -40
0 -40 0 0 40 0 40 -45 0 -45 0 0 -40 0 -40 -135 0 -135 0 0 -90 0 -90 45 0 45
0 0 -45 0 -45 -90 0 -90 0 0 -45 0 -45 90 0 90 0 0 -45 0 -45 90 0 90 0 0 -40
0 -40 -45 0 -45 0 0 -45 0 -45 -45 0 -45 0 0 -135 0 -135 -45 0 -45 0 0 45 0
45 -85 0 -85 0 0 45 0 45 -90 0 -90 0 0 45 0 45 -45 0 -45 0 0 45 0 45 45 0
45 0 0 40 0 40 -45 0 -45 0 0 -40 0 -40 -175 0 -175 0 0 40 0 40 -90 0 -90 0
0 -40 0 -40 -45 0 -45 0 0 40 0 40 -40 0 -40 0 0 -175 0 -175 85 0 85 0 0 45
0 45 45 0 45 0 0 -45 0 -45 220 0 220 0 0 -90 0 -90 45 0 45 0 0 90 0 90 45 0
45 0 0 -90 0 -90 45 0 45 0 0 45 0 45 85 0 85 0 0 -130 0 -130 45 0 45 0 0
-45 0 -45 45 0 45 0 0 -45 0 -45 -45 0 -45 0 0 -45 0 -45 -45 0 -45 0 0 90 0
90 -130 0 -130 0 0 -45 0 -45 -45 0 -45 0 0 -45 0 -45 45 0 45 0 0 45 0 45 45
0 45 0 0 -45 0 -45 85 0 85 0 0 -45 0 -45 45 0 45 0 0 45 0 45 90 0 90 0 0
-45 0 -45 45 0 45 0 0 45 0 45 40 0 40 0 0 -45 0 -45 90 0 90 0 0 45 0 45 45
0 45 0 0 -45 0 -45 220 0 220 0 0 45 0 45 45 0 45 0 0 45 0 45 45 0 45 0 0
-45 0 -45 45 0 45 0 0 90 0 90 -45 0 -45 0 0 45 0 45 45 0 45 0 0 85 0 85 -90
0 -90 0 0 45 0 45 45 0 45 0 0 45 0 45 45 0 45 0 0 45 0 45 -45 0 -45 0 0 45
0 45 45 0 45 0 0 85 0 85 -45 0 -45 0 0 45 0 45 -45 0 -45 0 0 135 0 135 45 0
45 0 0 -90 0 -90 45 0 45 0 0 175 0 175 -90 0 -90 0 0 45 0 45 90 0 90 0 0 45
0 45 -90 0 -90 0 0 45 0 45 -90 0 -90 0 0 -45z m-700 -350 l0 -45 -45 0 -45 0
0 45 0 45 45 0 45 0 0 -45z m-180 -90 l0 -45 45 0 45 0 0 -45 0 -45 45 0 45 0
0 45 0 45 40 0 40 0 0 -90 0 -90 90 0 90 0 0 45 0 45 45 0 45 0 0 -130 0 -130
45 0 45 0 0 -45 0 -45 85 0 85 0 0 45 0 45 45 0 45 0 0 -45 0 -45 45 0 45 0 0
-45 0 -45 -45 0 -45 0 0 45 0 45 -45 0 -45 0 0 -45 0 -45 -85 0 -85 0 0 45 0
45 -90 0 -90 0 0 45 0 45 -45 0 -45 0 0 40 0 40 -45 0 -45 0 0 -40 0 -40 -40
0 -40 0 0 40 0 40 -45 0 -45 0 0 45 0 45 -90 0 -90 0 0 45 0 45 45 0 45 0 0
45 0 45 -45 0 -45 0 0 45 0 45 45 0 45 0 0 -45z m880 -90 l0 -45 45 0 45 0 0
-45 0 -45 45 0 45 0 0 -85 0 -85 45 0 45 0 0 -45 0 -45 -45 0 -45 0 0 45 0 45
-45 0 -45 0 0 40 0 40 -45 0 -45 0 0 45 0 45 -45 0 -45 0 0 90 0 90 45 0 45 0
0 -45z m-170 -180 l0 -45 -45 0 -45 0 0 45 0 45 45 0 45 0 0 -45z m-1680 -170
l0 -45 130 0 130 0 0 -45 0 -45 -175 0 -175 0 0 45 0 45 -45 0 -45 0 0 45 0
45 90 0 90 0 0 -45z m1320 -90 l0 -45 -130 0 -130 0 0 45 0 45 130 0 130 0 0
-45z m-880 -90 l0 -45 -45 0 -45 0 0 45 0 45 45 0 45 0 0 -45z m620 -90 l0
-45 -45 0 -45 0 0 45 0 45 45 0 45 0 0 -45z m350 -45 l0 -90 -90 0 -90 0 0
-130 0 -130 45 0 45 0 0 -45 0 -45 45 0 45 0 0 45 0 45 45 0 45 0 0 45 0 45
265 0 265 0 0 45 0 45 -45 0 -45 0 0 40 0 40 -45 0 -45 0 0 90 0 90 45 0 45 0
0 -90 0 -90 45 0 45 0 0 -40 0 -40 45 0 45 0 0 -45 0 -45 -45 0 -45 0 0 -45 0
-45 -45 0 -45 0 0 -45 0 -45 -45 0 -45 0 0 -45 0 -45 -45 0 -45 0 0 45 0 45
45 0 45 0 0 45 0 45 -85 0 -85 0 0 -90 0 -90 -45 0 -45 0 0 90 0 90 -45 0 -45
0 0 -45 0 -45 -45 0 -45 0 0 -45 0 -45 -90 0 -90 0 0 90 0 90 -40 0 -40 0 0
-90 0 -90 -45 0 -45 0 0 90 0 90 -45 0 -45 0 0 45 0 45 -45 0 -45 0 0 85 0 85
135 0 135 0 0 45 0 45 40 0 40 0 0 45 0 45 90 0 90 0 0 -90z m350 -40 l0 -130
-130 0 -130 0 0 130 0 130 130 0 130 0 0 -130z"/>
<path d="M1320 405 l0 -45 45 0 45 0 0 -45 0 -45 45 0 45 0 0 90 0 90 -90 0
-90 0 0 -45z"/>
<path d="M1940 575 l0 -45 45 0 45 0 0 45 0 45 -45 0 -45 0 0 -45z"/>
<path d="M80 1595 l0 -85 -40 0 -40 0 0 -45 0 -45 85 0 85 0 0 45 0 45 45 0
45 0 0 -90 0 -90 -130 0 -130 0 0 -90 0 -90 40 0 40 0 0 45 0 45 45 0 45 0 0
-45 0 -45 45 0 45 0 0 90 0 90 45 0 45 0 0 90 0 90 -45 0 -45 0 0 40 0 40 -45
0 -45 0 0 45 0 45 -45 0 -45 0 0 -85z"/>
<path d="M880 975 l0 -85 85 0 85 0 0 85 0 85 -85 0 -85 0 0 -85z"/>
<path d="M0 310 l0 -310 305 0 305 0 0 310 0 310 -305 0 -305 0 0 -310z m520
0 l0 -220 -220 0 -220 0 0 220 0 220 220 0 220 0 0 -220z"/>
<path d="M170 315 l0 -135 135 0 135 0 0 135 0 135 -135 0 -135 0 0 -135z"/>
<path d="M700 360 l0 -90 45 0 45 0 0 45 0 45 90 0 90 0 0 45 0 45 -135 0
-135 0 0 -90z"/>
</g>
</svg>
